<svg width="0" height="0" class="hidden">
  <symbol xmlns="http://www.w3.org/2000/svg" viewBox="0 0 504 504" id="001-paypal">
    <path d="M389.6 221.2h-27.2c-1.6 0-3.2 1.6-4 3.2l-11.2 70.4c0 1.6.8 2.4 2.4 2.4H364c1.6 0 2.4-.8 2.4-2.4l3.2-20c0-1.6 1.6-3.2 4-3.2h8.8c18.4 0 28.8-8.8 31.2-26.4 1.6-7.2 0-13.6-3.2-17.6-4.8-4-12-6.4-20.8-6.4m3.2 26.4c-1.6 9.6-8.8 9.6-16 9.6H372l3.2-18.4c0-.8.8-1.6 2.4-1.6h1.6c4.8 0 9.6 0 12 3.2 1.6.8 1.6 3.2 1.6 7.2" fill="#139ad6"></path>
    <path d="M193.6 221.2h-27.2c-1.6 0-3.2 1.6-4 3.2l-11.2 70.4c0 1.6.8 2.4 2.4 2.4h12.8c1.6 0 3.2-1.6 4-3.2l3.2-19.2c0-1.6 1.6-3.2 4-3.2h8.8c18.4 0 28.8-8.8 31.2-26.4 1.6-7.2 0-13.6-3.2-17.6-4.8-4-11.2-6.4-20.8-6.4m3.2 26.4c-1.6 9.6-8.8 9.6-16 9.6h-4l3.2-18.4c0-.8.8-1.6 2.4-1.6h1.6c4.8 0 9.6 0 12 3.2.8.8 1.6 3.2.8 7.2m79.2-.8h-12.8c-.8 0-2.4.8-2.4 1.6l-.8 4-.8-1.6c-3.2-4-8.8-5.6-15.2-5.6-14.4 0-27.2 11.2-29.6 26.4-1.6 8 .8 15.2 4.8 20s9.6 6.4 16.8 6.4c12 0 18.4-7.2 18.4-7.2l-.8 4c0 1.6.8 2.4 2.4 2.4h12c1.6 0 3.2-1.6 4-3.2l7.2-44.8c-.8-.8-2.4-2.4-3.2-2.4m-18.4 25.6c-1.6 7.2-7.2 12.8-15.2 12.8-4 0-7.2-1.6-8.8-3.2-1.6-2.4-2.4-5.6-2.4-9.6.8-7.2 7.2-12.8 14.4-12.8 4 0 6.4 1.6 8.8 3.2 2.4 2.4 3.2 6.4 3.2 9.6" fill="#263b80"></path>
    <path d="M471.2 246.8h-12.8c-.8 0-2.4.8-2.4 1.6l-.8 4-.8-1.6c-3.2-4-8.8-5.6-15.2-5.6-14.4 0-27.2 11.2-29.6 26.4-1.6 8 .8 15.2 4.8 20s9.6 6.4 16.8 6.4c12 0 18.4-7.2 18.4-7.2l-.8 4c0 1.6.8 2.4 2.4 2.4h12c1.6 0 3.2-1.6 4-3.2l7.2-44.8c-.8-.8-1.6-2.4-3.2-2.4m-18.4 25.6c-1.6 7.2-7.2 12.8-15.2 12.8-4 0-7.2-1.6-8.8-3.2-1.6-2.4-2.4-5.6-2.4-9.6.8-7.2 7.2-12.8 14.4-12.8 4 0 6.4 1.6 8.8 3.2 3.2 2.4 4 6.4 3.2 9.6" fill="#139ad6"></path>
    <path d="M345.6 246.8H332c-1.6 0-2.4.8-3.2 1.6l-17.6 27.2-8-25.6c-.8-1.6-1.6-2.4-4-2.4h-12.8c-1.6 0-2.4 1.6-2.4 3.2l14.4 42.4-13.6 19.2c-.8 1.6 0 4 1.6 4h12.8c1.6 0 2.4-.8 3.2-1.6l44-63.2c2.4-2.4.8-4.8-.8-4.8" fill="#263b80"></path>
    <path d="M486.4 223.6l-11.2 72c0 1.6.8 2.4 2.4 2.4h11.2c1.6 0 3.2-1.6 4-3.2l11.2-70.4c0-1.6-.8-2.4-2.4-2.4h-12.8c-.8-.8-1.6 0-2.4 1.6" fill="#139ad6"></path>
    <path d="M92 197.2c-5.6-6.4-16-9.6-30.4-9.6h-40c-2.4 0-4.8 2.4-5.6 4.8L0 297.2c0 2.4 1.6 4 3.2 4H28l6.4-39.2v1.6c.8-2.4 3.2-4.8 5.6-4.8h12c23.2 0 40.8-9.6 46.4-36v-2.4c-.8 0-.8 0 0 0 .8-10.4-.8-16.8-6.4-23.2" fill="#263b80"></path>
    <path d="M97.6 220.4v2.4c-5.6 27.2-23.2 36-46.4 36h-12c-2.4 0-4.8 2.4-5.6 4.8l-8 48.8c0 1.6.8 3.2 3.2 3.2h20.8c2.4 0 4.8-1.6 4.8-4v-.8l4-24.8v-1.6c0-2.4 2.4-4 4.8-4h3.2c20 0 36-8 40-32 1.6-9.6.8-18.4-4-24-.8-1.6-2.4-3.2-4.8-4" fill="#139ad6"></path>
    <path d="M92 218c-.8 0-1.6-.8-2.4-.8s-1.6 0-2.4-.8c-3.2-.8-6.4-.8-10.4-.8H45.6c-.8 0-1.6 0-2.4.8-1.6.8-2.4 2.4-2.4 4L34.4 262v1.6c.8-2.4 3.2-4.8 5.6-4.8h12c23.2 0 40.8-9.6 46.4-36 0-.8 0-1.6.8-2.4-1.6-.8-2.4-1.6-4-1.6-2.4-.8-2.4-.8-3.2-.8" fill="#232c65"></path>
  </symbol>
  <symbol xmlns="http://www.w3.org/2000/svg" viewBox="0 0 512 512" id="002-visa">
    <path d="M512 402.281c0 16.716-13.55 30.267-30.265 30.267H30.265C13.55 432.549 0 418.997 0 402.281V109.717c0-16.716 13.55-30.266 30.265-30.266h451.47c16.716 0 30.265 13.551 30.265 30.266v292.564z" fill="#fff"></path>
    <path d="M113.64 258.035l-12.022-57.671c-2.055-7.953-8.035-10.319-15.507-10.632H30.993l-.491 2.635c42.929 10.407 71.334 35.513 83.138 65.668z" fill="#f79f1a"></path>
    <path d="M241.354 190.892h-35.613l-22.242 130.527h35.554zM135.345 321.288l56.01-130.307h-37.691l-34.843 89.028-3.719-13.442c-6.83-16.171-26.35-39.446-49.266-54.098l31.85 108.863 37.659-.044zm207.586-42.538c.132-14.819-9.383-26.122-29.887-35.458-12.461-6.03-20.056-10.051-19.965-16.17 0-5.406 6.432-11.213 20.368-11.213 11.661-.179 20.057 2.367 26.624 5.003l3.218 1.475 4.826-28.277c-7.059-2.637-18.094-5.451-31.895-5.451-35.157 0-59.904 17.691-60.128 43.064-.224 18.763 17.692 29.216 31.181 35.469 13.847 6.374 18.493 10.453 18.404 16.171-.089 8.743-11.035 12.73-21.264 12.73-14.25 0-21.8-1.965-33.509-6.843l-4.55-2.09-4.998 29.249c8.303 3.629 23.668 6.801 39.618 6.933 37.387 0 61.689-17.466 61.957-44.592zm42.302 23.105c4.065 0 40.382.045 45.566.045 1.072 4.545 4.333 19.565 4.333 19.565h33.011L439.33 191.027h-27.472c-8.533 0-14.874 2.323-18.628 10.809l-52.845 119.629h37.392c-.003 0 6.071-16.079 7.456-19.61zm24.389-63.21c-.176.357 2.95-7.549 4.737-12.463l2.411 11.256s6.792 31.182 8.22 37.704h-29.528c2.949-7.504 14.16-36.497 14.16-36.497zm72.113-159.194H30.265C13.55 79.451 0 93.001 0 109.717v31.412h512v-31.412c0-16.716-13.549-30.266-30.265-30.266z" fill="#059bbf"></path>
    <path d="M481.735 432.549H30.265C13.55 432.549 0 418.998 0 402.283v-31.412h512v31.412c0 16.715-13.549 30.266-30.265 30.266z" fill="#f79f1a"></path>
    <path d="M21.517 402.281V109.717c0-16.716 13.551-30.266 30.267-30.266h-21.52C13.55 79.451 0 93.001 0 109.717v292.565c0 16.716 13.55 30.267 30.265 30.267h21.52c-16.716 0-30.268-13.552-30.268-30.268z" opacity=".15" fill="#202121"></path>
  </symbol>
  <symbol xmlns="http://www.w3.org/2000/svg" viewBox="0 0 504 504" id="003-mastercard">
    <path d="M504 252c0 83.2-67.2 151.2-151.2 151.2-83.2 0-151.2-68-151.2-151.2 0-83.2 67.2-151.2 150.4-151.2 84.8 0 152 68 152 151.2z" fill="#ffb600"></path>
    <path d="M352.8 100.8c83.2 0 151.2 68 151.2 151.2 0 83.2-67.2 151.2-151.2 151.2-83.2 0-151.2-68-151.2-151.2" fill="#f7981d"></path>
    <path d="M352.8 100.8c83.2 0 151.2 68 151.2 151.2 0 83.2-67.2 151.2-151.2 151.2" fill="#ff8500"></path>
    <path d="M149.6 100.8C67.2 101.6 0 168.8 0 252s67.2 151.2 151.2 151.2c39.2 0 74.4-15.2 101.6-39.2 5.6-4.8 10.4-10.4 15.2-16h-31.2c-4-4.8-8-10.4-11.2-15.2h53.6c3.2-4.8 6.4-10.4 8.8-16h-71.2c-2.4-4.8-4.8-10.4-6.4-16h83.2c4.8-15.2 8-31.2 8-48 0-11.2-1.6-21.6-3.2-32h-92.8c.8-5.6 2.4-10.4 4-16h83.2c-1.6-5.6-4-11.2-6.4-16H216c2.4-5.6 5.6-10.4 8.8-16h53.6c-3.2-5.6-7.2-11.2-12-16h-29.6c4.8-5.6 9.6-10.4 15.2-15.2-26.4-24.8-62.4-39.2-101.6-39.2 0-1.6 0-1.6-.8-1.6z" fill="#ff5050"></path>
    <path d="M0 252c0 83.2 67.2 151.2 151.2 151.2 39.2 0 74.4-15.2 101.6-39.2 5.6-4.8 10.4-10.4 15.2-16h-31.2c-4-4.8-8-10.4-11.2-15.2h53.6c3.2-4.8 6.4-10.4 8.8-16h-71.2c-2.4-4.8-4.8-10.4-6.4-16h83.2c4.8-15.2 8-31.2 8-48 0-11.2-1.6-21.6-3.2-32h-92.8c.8-5.6 2.4-10.4 4-16h83.2c-1.6-5.6-4-11.2-6.4-16H216c2.4-5.6 5.6-10.4 8.8-16h53.6c-3.2-5.6-7.2-11.2-12-16h-29.6c4.8-5.6 9.6-10.4 15.2-15.2-26.4-24.8-62.4-39.2-101.6-39.2h-.8" fill="#e52836"></path>
    <path d="M151.2 403.2c39.2 0 74.4-15.2 101.6-39.2 5.6-4.8 10.4-10.4 15.2-16h-31.2c-4-4.8-8-10.4-11.2-15.2h53.6c3.2-4.8 6.4-10.4 8.8-16h-71.2c-2.4-4.8-4.8-10.4-6.4-16h83.2c4.8-15.2 8-31.2 8-48 0-11.2-1.6-21.6-3.2-32h-92.8c.8-5.6 2.4-10.4 4-16h83.2c-1.6-5.6-4-11.2-6.4-16H216c2.4-5.6 5.6-10.4 8.8-16h53.6c-3.2-5.6-7.2-11.2-12-16h-29.6c4.8-5.6 9.6-10.4 15.2-15.2-26.4-24.8-62.4-39.2-101.6-39.2h-.8" fill="#cb2026"></path>
    <path d="M204.8 290.4l2.4-13.6c-.8 0-2.4.8-4 .8-5.6 0-6.4-3.2-5.6-4.8l4.8-28h8.8l2.4-15.2h-8l1.6-9.6h-16s-9.6 52.8-9.6 59.2c0 9.6 5.6 13.6 12.8 13.6 4.8 0 8.8-1.6 10.4-2.4zm5.6-25.6c0 22.4 15.2 28 28 28 12 0 16.8-2.4 16.8-2.4l3.2-15.2s-8.8 4-16.8 4c-17.6 0-14.4-12.8-14.4-12.8H260s2.4-10.4 2.4-14.4c0-10.4-5.6-23.2-23.2-23.2-16.8-1.6-28.8 16-28.8 36zm28-23.2c8.8 0 7.2 10.4 7.2 11.2H228c0-.8 1.6-11.2 10.4-11.2zM340 290.4l3.2-17.6s-8 4-13.6 4c-11.2 0-16-8.8-16-18.4 0-19.2 9.6-29.6 20.8-29.6 8 0 14.4 4.8 14.4 4.8l2.4-16.8s-9.6-4-18.4-4c-18.4 0-36.8 16-36.8 46.4 0 20 9.6 33.6 28.8 33.6 6.4 0 15.2-2.4 15.2-2.4zm-223.2-63.2c-11.2 0-19.2 3.2-19.2 3.2L95.2 244s7.2-3.2 17.6-3.2c5.6 0 10.4.8 10.4 5.6 0 3.2-.8 4-.8 4h-7.2c-13.6 0-28.8 5.6-28.8 24 0 14.4 9.6 17.6 15.2 17.6 11.2 0 16-7.2 16.8-7.2l-.8 6.4H132l6.4-44c0-19.2-16-20-21.6-20zm3.2 36c0 2.4-1.6 15.2-11.2 15.2-4.8 0-6.4-4-6.4-6.4 0-4 2.4-9.6 14.4-9.6 2.4.8 3.2.8 3.2.8zm33.6 28.8c4 0 24 .8 24-20.8 0-20-19.2-16-19.2-24 0-4 3.2-5.6 8.8-5.6 2.4 0 11.2.8 11.2.8l2.4-14.4s-5.6-1.6-15.2-1.6c-12 0-24 4.8-24 20.8 0 18.4 20 16.8 20 24 0 4.8-5.6 5.6-9.6 5.6-7.2 0-14.4-2.4-14.4-2.4l-2.4 14.4c.8 1.6 4.8 3.2 18.4 3.2zm319.2-77.6l-3.2 21.6s-6.4-8-15.2-8c-14.4 0-27.2 17.6-27.2 38.4 0 12.8 6.4 26.4 20 26.4 9.6 0 15.2-6.4 15.2-6.4l-.8 5.6h16l12-76.8-16.8-.8zm-7.2 42.4c0 8.8-4 20-12.8 20-5.6 0-8.8-4.8-8.8-12.8 0-12.8 5.6-20.8 12.8-20.8 5.6 0 8.8 4 8.8 13.6zm-436 34.4l9.6-57.6 1.6 57.6H52l20.8-57.6-8.8 57.6h16.8l12.8-76.8H67.2l-16 47.2-.8-47.2H27.2l-12.8 76.8h15.2zm248 0c4.8-26.4 5.6-48 16.8-44 1.6-10.4 4-14.4 5.6-18.4h-3.2c-7.2 0-12.8 9.6-12.8 9.6l1.6-8.8h-15.2L260 292h17.6v-.8zm99.2-64c-11.2 0-19.2 3.2-19.2 3.2l-2.4 13.6s7.2-3.2 17.6-3.2c5.6 0 10.4.8 10.4 5.6 0 3.2-.8 4-.8 4h-7.2c-13.6 0-28.8 5.6-28.8 24 0 14.4 9.6 17.6 15.2 17.6 11.2 0 16-7.2 16.8-7.2l-.8 6.4H392l6.4-44c.8-19.2-16-20-21.6-20zm4 36c0 2.4-1.6 15.2-11.2 15.2-4.8 0-6.4-4-6.4-6.4 0-4 2.4-9.6 14.4-9.6 2.4.8 2.4.8 3.2.8zm31.2 28c4.8-26.4 5.6-48 16.8-44 1.6-10.4 4-14.4 5.6-18.4h-3.2c-7.2 0-12.8 9.6-12.8 9.6l1.6-8.8h-15.2L394.4 292H412v-.8z" fill="#fff"></path>
    <path d="M180 279.2c0 9.6 5.6 13.6 12.8 13.6 5.6 0 10.4-1.6 12-2.4l2.4-13.6c-.8 0-2.4.8-4 .8-5.6 0-6.4-3.2-5.6-4.8l4.8-28h8.8l2.4-15.2h-8l1.6-9.6m11.2 44.8c0 22.4 7.2 28 20 28 12 0 16.8-2.4 16.8-2.4l3.2-15.2s-8.8 4-16.8 4c-17.6 0-14.4-12.8-14.4-12.8H260s2.4-10.4 2.4-14.4c0-10.4-5.6-23.2-23.2-23.2-16.8-1.6-20.8 16-20.8 36zm20-23.2c8.8 0 10.4 10.4 10.4 11.2H228c0-.8 1.6-11.2 10.4-11.2zM340 290.4l3.2-17.6s-8 4-13.6 4c-11.2 0-16-8.8-16-18.4 0-19.2 9.6-29.6 20.8-29.6 8 0 14.4 4.8 14.4 4.8l2.4-16.8s-9.6-4-18.4-4c-18.4 0-28.8 16-28.8 46.4 0 20 1.6 33.6 20.8 33.6 6.4 0 15.2-2.4 15.2-2.4zM95.2 244.8s7.2-3.2 17.6-3.2c5.6 0 10.4.8 10.4 5.6 0 3.2-.8 4-.8 4h-7.2c-13.6 0-28.8 5.6-28.8 24 0 14.4 9.6 17.6 15.2 17.6 11.2 0 16-7.2 16.8-7.2l-.8 6.4H132l6.4-44c0-18.4-16-19.2-22.4-19.2m12 34.4c0 2.4-9.6 15.2-19.2 15.2-4.8 0-6.4-4-6.4-6.4 0-4 2.4-9.6 14.4-9.6 2.4.8 11.2.8 11.2.8zm8 27.2s4.8 1.6 18.4 1.6c4 0 24 .8 24-20.8 0-20-19.2-16-19.2-24 0-4 3.2-5.6 8.8-5.6 2.4 0 11.2.8 11.2.8l2.4-14.4s-5.6-1.6-15.2-1.6c-12 0-16 4.8-16 20.8 0 18.4 12 16.8 12 24 0 4.8-5.6 5.6-9.6 5.6M469.6 236s-6.4-8-15.2-8c-14.4 0-19.2 17.6-19.2 38.4 0 12.8-1.6 26.4 12 26.4 9.6 0 15.2-6.4 15.2-6.4l-.8 5.6h16l12-76.8m-20.8 41.6c0 8.8-7.2 20-16 20-5.6 0-8.8-4.8-8.8-12.8 0-12.8 5.6-20.8 12.8-20.8 5.6 0 12 4 12 13.6zM29.6 291.2l9.6-57.6 1.6 57.6H52l20.8-57.6-8.8 57.6h16.8l12.8-76.8h-20l-22.4 47.2-.8-47.2h-8.8l-27.2 76.8h15.2zm231.2 0h16.8c4.8-26.4 5.6-48 16.8-44 1.6-10.4 4-14.4 5.6-18.4h-3.2c-7.2 0-12.8 9.6-12.8 9.6l1.6-8.8m69.6 15.2s7.2-3.2 17.6-3.2c5.6 0 10.4.8 10.4 5.6 0 3.2-.8 4-.8 4h-7.2c-13.6 0-28.8 5.6-28.8 24 0 14.4 9.6 17.6 15.2 17.6 11.2 0 16-7.2 16.8-7.2l-.8 6.4H392l6.4-44c0-18.4-16-19.2-22.4-19.2m12 34.4c0 2.4-9.6 15.2-19.2 15.2-4.8 0-6.4-4-6.4-6.4 0-4 2.4-9.6 14.4-9.6 3.2.8 11.2.8 11.2.8zm7.2 28H412c4.8-26.4 5.6-48 16.8-44 1.6-10.4 4-14.4 5.6-18.4h-3.2c-7.2 0-12.8 9.6-12.8 9.6l1.6-8.8" fill="#dce5e5"></path>
  </symbol>
  <symbol xmlns="http://www.w3.org/2000/svg" viewBox="0 0 512 512" id="004-discover">
    <path d="M512 402.282c0 16.716-13.55 30.267-30.265 30.267H30.265C13.55 432.549 0 418.996 0 402.282V109.717c0-16.716 13.55-30.266 30.265-30.266h451.469c16.716 0 30.265 13.551 30.265 30.266L512 402.282z" fill="#34495e"></path>
    <path d="M21.517 402.282V109.717c0-16.716 13.552-30.266 30.267-30.266h-21.52C13.55 79.451 0 93.003 0 109.717v292.565c0 16.716 13.55 30.267 30.265 30.267h21.52c-16.715 0-30.268-13.553-30.268-30.267z" opacity=".15" fill="#202121"></path>
    <path d="M309.389 255.801c.041-9.636-3.572-19.286-10.843-26.558-7.287-7.287-16.961-10.897-26.617-10.839-.046 0-.091-.003-.139-.003-20.968 0-37.6 16.628-37.6 37.602 0 20.767 16.837 37.599 37.6 37.599 20.974 0 37.604-16.631 37.604-37.599 0-.069-.005-.134-.005-.202z" fill="#f26e21"></path>
    <path d="M227.198 271.909c-5.62 5.626-10.807 7.824-16.394 7.943-13.611-.122-23.618-10.202-23.618-24.573 0-7.234 2.739-13.163 7.078-18.228 4.069-3.863 9.311-6.359 15.339-6.359 6.507 0 11.571 2.169 17.352 7.954v-16.631c-5.78-2.891-10.846-4.338-17.352-4.338-9.192.657-17.859 4.371-24.507 10.203-1.916 1.724-3.752 3.627-5.309 5.805-4.856 6.294-7.791 14.001-7.791 22.32 0 20.967 16.637 36.875 37.606 36.875.102 0 .203-.009.302-.01.141.002.28.01.42.01 5.784 0 10.85-1.443 17.357-4.336l-.483-16.635c-.244.244.242.471 0 .702v-.702zm129.665-43.876l-16.376 40.262-18.802-47.729h-15.183l29.646 73.035h7.954l31.094-73.035h-15.183zm24.12 24.351v39.051h39.77v-11.574h-25.308v-19.519h24.588v-12.297h-24.588v-15.184h25.308v-12.295h-39.77zM54.135 220.566H33.884v70.869h20.25c10.845 0 18.798-2.895 25.306-7.957 7.953-6.508 13.017-16.629 13.017-27.474.001-20.976-15.187-35.438-38.322-35.438zm16.63 53.514c-4.339 3.614-10.124 5.781-18.802 5.781h-4.339V232.86h3.615c8.678 0 14.463 1.446 18.803 5.783 5.061 4.336 7.955 10.848 7.955 17.358.723 6.508-2.169 13.736-7.232 18.079zm28.205-53.52h13.739v70.867H98.97zm48.445 27.485c-8.676-2.892-10.848-5.063-10.848-8.677 0-4.339 4.339-7.954 10.124-7.954 4.339 0 7.954 1.447 11.57 5.786l7.233-9.4c-5.787-5.064-13.015-7.953-20.97-7.953-12.296 0-22.42 8.678-22.42 20.244 0 10.126 4.343 14.464 17.357 19.526 5.785 2.166 7.955 2.892 9.404 4.338 2.887 1.444 4.336 4.339 4.336 7.228 0 5.786-4.336 10.126-10.848 10.126-6.514 0-12.294-3.615-15.187-9.401l-8.678 8.678c6.511 9.4 14.465 13.738 24.589 13.738 14.461 0 24.58-9.4 24.58-23.141.002-12.29-4.333-17.352-20.242-23.138zm312.389 13.738c10.843-2.166 16.63-9.4 16.63-20.244 0-13.014-9.402-20.973-25.308-20.973h-20.972v70.869h13.739V263.23h2.172l19.519 28.205h16.634l-22.414-29.652zm-11.574-8.678h-4.336v-21.691h4.336c8.678 0 13.742 3.614 13.742 10.85 0 7.228-5.063 10.841-13.742 10.841z" fill="#e7e8e3"></path>
  </symbol>
  <symbol xmlns="http://www.w3.org/2000/svg" viewBox="0 0 512 512" id="005-truck">
    <path d="M119.467 337.067c-28.237 0-51.2 22.963-51.2 51.2 0 28.237 22.963 51.2 51.2 51.2s51.2-22.963 51.2-51.2c0-28.237-22.964-51.2-51.2-51.2zm0 85.333c-18.825 0-34.133-15.309-34.133-34.133 0-18.825 15.309-34.133 34.133-34.133s34.133 15.309 34.133 34.133c0 18.824-15.309 34.133-34.133 34.133zM409.6 337.067c-28.237 0-51.2 22.963-51.2 51.2 0 28.237 22.963 51.2 51.2 51.2 28.237 0 51.2-22.963 51.2-51.2 0-28.237-22.963-51.2-51.2-51.2zm0 85.333c-18.825 0-34.133-15.309-34.133-34.133 0-18.825 15.309-34.133 34.133-34.133 18.825 0 34.133 15.309 34.133 34.133 0 18.824-15.308 34.133-34.133 34.133z"></path>
    <path d="M510.643 289.784l-76.8-119.467a8.535 8.535 0 0 0-7.177-3.917H332.8a8.53 8.53 0 0 0-8.533 8.533v213.333a8.525 8.525 0 0 0 8.533 8.533h34.133v-17.067h-25.6V183.467h80.674l72.926 113.442v82.825h-42.667V396.8h51.2a8.525 8.525 0 0 0 8.533-8.533V294.4a8.51 8.51 0 0 0-1.356-4.616z"></path>
    <path d="M375.467 277.333V217.6h68.267v-17.067h-76.8a8.53 8.53 0 0 0-8.533 8.533v76.8a8.525 8.525 0 0 0 8.533 8.533h128v-17.067H375.467zM332.8 106.667H8.533A8.536 8.536 0 0 0 0 115.2v273.067a8.53 8.53 0 0 0 8.533 8.533H76.8v-17.067H17.067v-256h307.2v256H162.133V396.8H332.8a8.525 8.525 0 0 0 8.533-8.533V115.2a8.53 8.53 0 0 0-8.533-8.533z"></path>
    <path d="M8.533 345.6h51.2v17.067h-51.2zm170.667 0h145.067v17.067H179.2zm290.133 0h34.133v17.067h-34.133zm-435.2-204.8H332.8v17.067H34.133zm76.8 238.933H128V396.8h-17.067zm290.134 0h17.067V396.8h-17.067zM34.133 72.533H153.6V89.6H34.133zM0 72.533h17.067V89.6H0z"></path>
  </symbol>
  <symbol xmlns="http://www.w3.org/2000/svg" viewBox="0 0 512 512" id="006-credit-card">
    <path d="M224 159.992v-32H32c-17.632 0-32 14.368-32 32v64h230.752c-4.448-19.552-6.752-40.608-6.752-64zm286.688 128c-21.824 33.632-55.104 62.24-102.784 89.632-7.328 4.192-15.584 6.368-23.904 6.368s-16.576-2.176-23.808-6.304c-47.68-27.456-80.96-56.096-102.816-89.696H0v160c0 17.664 14.368 32 32 32h448c17.664 0 32-14.336 32-32v-160h-1.312zm-366.688 96H80c-8.832 0-16-7.168-16-16s7.168-16 16-16h64c8.832 0 16 7.168 16 16s-7.168 16-16 16z"></path>
    <path d="M502.304 81.304l-112-48a16.058 16.058 0 0 0-12.64 0l-112 48C259.808 83.8 256 89.592 256 95.992v64c0 88.032 32.544 139.488 120.032 189.888 2.464 1.408 5.216 2.112 7.968 2.112s5.504-.704 7.968-2.112C479.456 299.608 512 248.152 512 159.992v-64c0-6.4-3.808-12.192-9.696-14.688zm-57.792 72.704l-64 80c-3.072 3.776-7.68 5.984-12.512 5.984h-.672a16.058 16.058 0 0 1-12.64-7.104l-32-48c-4.896-7.36-2.912-17.28 4.448-22.176 7.296-4.864 17.248-2.944 22.176 4.448l19.872 29.792 50.304-62.912c5.536-6.88 15.616-7.968 22.496-2.496 6.912 5.472 8 15.552 2.528 22.464z"></path>
  </symbol>
  <symbol xmlns="http://www.w3.org/2000/svg" viewBox="0 0 512 512" id="007-box">
    <path d="M491.729 112.971L259.261.745a7.503 7.503 0 0 0-6.521 0L20.271 112.971a7.5 7.5 0 0 0-4.239 6.754v272.549a7.5 7.5 0 0 0 4.239 6.754l232.468 112.226a7.504 7.504 0 0 0 6.522 0l232.468-112.226a7.5 7.5 0 0 0 4.239-6.754V119.726a7.502 7.502 0 0 0-4.239-6.755zM256 15.828l215.217 103.897-62.387 30.118a7.434 7.434 0 0 0-1.27-.8L193.805 45.853 256 15.828zm-79.133 38.505l214.904 103.746-44.015 21.249L132.941 75.624l43.926-21.291zm219.932 117.974v78.546l-41.113 19.848v-78.546l41.113-19.848zm84.169 215.261L263.5 492.55V236.658l51.873-25.042a7.5 7.5 0 1 0-6.522-13.508L256 223.623l-20.796-10.04a7.498 7.498 0 0 0-10.015 3.493 7.5 7.5 0 0 0 3.493 10.015l19.818 9.567V492.55L31.032 387.566V131.674l165.6 79.945a7.463 7.463 0 0 0 3.255.748 7.5 7.5 0 0 0 3.266-14.256l-162.37-78.386 74.505-35.968L340.582 192.52c.033.046.07.087.104.132v89.999a7.502 7.502 0 0 0 10.761 6.754l56.113-27.089a7.499 7.499 0 0 0 4.239-6.754v-90.495l69.169-33.392v255.893z"></path>
    <path d="M92.926 358.479L58.811 342.01a7.5 7.5 0 0 0-6.522 13.508l34.115 16.469a7.463 7.463 0 0 0 3.255.748 7.5 7.5 0 0 0 6.759-4.241 7.499 7.499 0 0 0-3.492-10.015zm31.397-20.437l-65.465-31.604a7.501 7.501 0 0 0-6.521 13.509l65.465 31.604a7.477 7.477 0 0 0 3.255.748 7.5 7.5 0 0 0 3.266-14.257z"></path>
  </symbol>
  <symbol viewBox="0 0 512 512" xmlns="http://www.w3.org/2000/svg" id="008-gear">
    <path d="M499.953 197.703l-39.351-8.555a214.162 214.162 0 0 0-12.664-30.539l21.785-33.886a15.302 15.302 0 0 0-2.051-19.09l-61.305-61.305a15.302 15.302 0 0 0-19.09-2.05l-33.886 21.785a214.162 214.162 0 0 0-30.54-12.665l-8.554-39.351A15.298 15.298 0 0 0 299.347 0h-86.695a15.298 15.298 0 0 0-14.949 12.047l-8.555 39.351a214.162 214.162 0 0 0-30.539 12.664l-33.886-21.785a15.302 15.302 0 0 0-19.09 2.051l-61.305 61.305a15.302 15.302 0 0 0-2.05 19.09l21.785 33.886a214.162 214.162 0 0 0-12.665 30.54l-39.351 8.554A15.301 15.301 0 0 0 0 212.653v86.695a15.301 15.301 0 0 0 12.047 14.949l39.351 8.555a214.162 214.162 0 0 0 12.665 30.539l-21.786 33.886a15.302 15.302 0 0 0 2.051 19.09l61.305 61.305a15.302 15.302 0 0 0 19.09 2.05l33.886-21.785a214.162 214.162 0 0 0 30.54 12.665l8.554 39.351A15.298 15.298 0 0 0 212.653 512h86.695a15.298 15.298 0 0 0 14.949-12.047l8.555-39.351a214.162 214.162 0 0 0 30.539-12.665l33.886 21.786a15.297 15.297 0 0 0 19.09-2.051l61.305-61.305a15.302 15.302 0 0 0 2.05-19.09l-21.784-33.886a214.162 214.162 0 0 0 12.664-30.54l39.351-8.554A15.301 15.301 0 0 0 512 299.347v-86.695a15.301 15.301 0 0 0-12.047-14.949zM347.793 256c0 50.613-41.18 91.793-91.793 91.793s-91.793-41.18-91.793-91.793 41.18-91.793 91.793-91.793 91.793 41.18 91.793 91.793zm0 0"></path>
  </symbol>
</svg>