<svg width="0" height="0" class="hidden">
  <symbol xmlns="http://www.w3.org/2000/svg" viewBox="0 0 40 21" id="cart">
    <path d="M0 1V0h25v1H0zm0 10v-1h40v1H0zm0 10v-1h40v1H0z" fill-rule="evenodd"></path>
  </symbol>
  <symbol xmlns="http://www.w3.org/2000/svg" viewBox="0 0 512 512" id="search">
    <path d="M508.875 493.792L353.089 338.005c32.358-35.927 52.245-83.296 52.245-135.339C405.333 90.917 314.417 0 202.667 0S0 90.917 0 202.667s90.917 202.667 202.667 202.667c52.043 0 99.411-19.887 135.339-52.245l155.786 155.786a10.634 10.634 0 0 0 7.542 3.125c2.729 0 5.458-1.042 7.542-3.125 4.166-4.167 4.166-10.917-.001-15.083zM202.667 384c-99.979 0-181.333-81.344-181.333-181.333S102.688 21.333 202.667 21.333 384 102.677 384 202.667 302.646 384 202.667 384z"></path>
  </symbol>
  <symbol viewBox="0 0 24 24" xmlns="http://www.w3.org/2000/svg" id="facebook">
    <path d="M15.997 3.985h2.191V.169C17.81.117 16.51 0 14.996 0c-3.159 0-5.323 1.987-5.323 5.639V9H6.187v4.266h3.486V24h4.274V13.267h3.345l.531-4.266h-3.877V6.062c.001-1.233.333-2.077 2.051-2.077z"></path>
  </symbol>
  <symbol viewBox="0 0 24 24" xmlns="http://www.w3.org/2000/svg" id="google-plus">
    <path d="M21.823 9h-2.187v2.177h-2.177v2.187h2.177v2.177h2.187v-2.177H24v-2.187h-2.177zM7.5 19.5c4.328 0 7.203-3.038 7.203-7.326 0-.491-.051-.87-.122-1.248h-7.08v2.578h4.257c-.174 1.095-1.289 3.233-4.257 3.233-2.557 0-4.645-2.118-4.645-4.737s2.087-4.738 4.645-4.738c1.463 0 2.435.624 2.988 1.156l2.036-1.954C11.214 5.237 9.526 4.5 7.5 4.5 3.356 4.5 0 7.856 0 12s3.356 7.5 7.5 7.5z"></path>
  </symbol>
  <symbol viewBox="0 0 24 24" xmlns="http://www.w3.org/2000/svg" id="twitter">
    <path d="M21.534 7.113A9.822 9.822 0 0 0 24 4.559v-.001c-.893.391-1.843.651-2.835.777a4.894 4.894 0 0 0 2.165-2.719 9.845 9.845 0 0 1-3.12 1.191 4.919 4.919 0 0 0-8.511 3.364c0 .39.033.765.114 1.122-4.09-.2-7.71-2.16-10.142-5.147a4.962 4.962 0 0 0-.674 2.487c0 1.704.877 3.214 2.186 4.089A4.863 4.863 0 0 1 .96 9.116v.054a4.943 4.943 0 0 0 3.942 4.835c-.401.11-.837.162-1.29.162-.315 0-.633-.018-.931-.084.637 1.948 2.447 3.381 4.597 3.428a9.89 9.89 0 0 1-6.101 2.098c-.403 0-.79-.018-1.177-.067a13.856 13.856 0 0 0 7.548 2.208c8.683 0 14.342-7.244 13.986-14.637z"></path>
  </symbol>
  <symbol viewBox="0 0 24 24" xmlns="http://www.w3.org/2000/svg" id="dribbble">
    <path d="M12 24c6.617 0 12-5.384 12-12S18.616 0 12 0 0 5.383 0 12s5.383 12 12 12zm0-22.5c5.788 0 10.5 4.71 10.5 10.5 0 5.788-4.712 10.5-10.5 10.5-5.79 0-10.5-4.712-10.5-10.5C1.5 6.21 6.21 1.5 12 1.5z"></path>
    <path d="M17.742 5.071A8.955 8.955 0 0 0 12 3c-.63 0-1.245.066-1.839.189a42.716 42.716 0 0 1 2.957 4.829 21.24 21.24 0 0 0 4.624-2.947zm-2.876 6.781a16.748 16.748 0 0 1 6.12-.107 8.948 8.948 0 0 0-2.175-5.616 22.832 22.832 0 0 1-5.045 3.222c.394.822.76 1.655 1.1 2.501zm-3.148-3.267a41.114 41.114 0 0 0-3.063-4.936 9.007 9.007 0 0 0-5.417 6.322 21.238 21.238 0 0 0 8.48-1.386zm1.686 3.64a39.274 39.274 0 0 0-1.014-2.281 22.588 22.588 0 0 1-8.195 1.564c-.388 0-.778-.024-1.168-.045-.01.178-.027.356-.027.537 0 2.21.8 4.232 2.121 5.798a16.87 16.87 0 0 1 8.283-5.573zm2.013 1.046a42.648 42.648 0 0 1 1.688 6.137 8.986 8.986 0 0 0 3.799-6.162 15.301 15.301 0 0 0-5.487.025zm-9.232 5.593a8.957 8.957 0 0 0 9.545 1.319 40.69 40.69 0 0 0-1.787-6.563 15.357 15.357 0 0 0-7.758 5.244z"></path>
  </symbol>
</svg>